<svg width="86" height="47" viewBox="0 0 86 47" fill="none" xmlns="http://www.w3.org/2000/svg">
<path d="M36.2438 24.0506C36.6305 27.7303 36.3552 31.0104 35.4178 33.8909C34.5101 36.7347 32.8767 39.0514 30.5175 40.8412C28.1915 42.6274 25.1057 43.7226 21.2602 44.1268C17.4147 44.531 14.1521 44.103 11.4724 42.8429C8.8258 41.5793 6.74463 39.6362 5.22885 37.0136C3.74623 34.3875 2.81154 31.2346 2.42479 27.5549C2.03803 23.8751 2.29851 20.6134 3.20623 17.7696C4.1471 14.9223 5.78228 12.6221 8.1118 10.869C10.471 9.07926 13.5899 7.98056 17.4685 7.5729C21.314 7.16872 24.56 7.59844 27.2066 8.86205C29.8497 10.0925 31.9126 12.0208 33.3952 14.6469C34.9075 17.2363 35.857 20.3709 36.2438 24.0506ZM10.3365 26.7736C10.7267 30.4865 11.7478 33.3454 13.3998 35.3504C15.0482 37.3222 17.4471 38.1426 20.5965 37.8116C23.8121 37.4736 26.0046 36.1706 27.1739 33.9026C28.3397 31.6015 28.7276 28.5945 28.3373 24.8816C27.9471 21.1687 26.9443 18.3246 25.329 16.3493C23.7102 14.3409 21.3095 13.5039 18.127 13.8384C14.9446 14.1729 12.7538 15.4924 11.5548 17.7971C10.3523 20.0685 9.94623 23.0607 10.3365 26.7736ZM74.012 38.0796L65.4591 38.9786L54.5872 24.9883L51.6451 27.6102L52.9779 40.2904L45.4692 41.0796L41.7376 5.57515L49.2462 4.78596L50.9552 21.0464C51.3793 20.298 51.8034 19.5495 52.2275 18.8011C52.6516 18.0527 53.0757 17.3042 53.4998 16.5558L61.8269 3.46367L70.1809 2.58563L59.4506 19.6005L74.012 38.0796ZM82.8708 25.2332L76.9534 25.8552L73.2173 2.26649L81.621 1.38323L82.8708 25.2332ZM76.4837 34.3006C76.3234 32.7756 76.6263 31.6712 77.3923 30.9874C78.1549 30.2705 79.1329 29.8492 80.3263 29.7238C81.4866 29.6019 82.5142 29.8123 83.4092 30.355C84.3007 30.8646 84.8265 31.8819 84.9868 33.4068C85.1401 34.8655 84.8372 35.9698 84.0782 36.72C83.3156 37.4369 82.3542 37.8564 81.1939 37.9783C80.0005 38.1038 78.9563 37.8951 78.0613 37.3524C77.1628 36.7765 76.637 35.7592 76.4837 34.3006Z" fill="#ED1C24"/>
</svg>
