<svg fill="none" height="76" viewBox="0 0 82 76" width="82" xmlns="http://www.w3.org/2000/svg" xmlns:xlink="http://www.w3.org/1999/xlink"><clipPath id="a"><path d="m0 0h81.92v75.49h-81.92z"/></clipPath><g clip-path="url(#a)" fill="#fff"><path d="m27.2 64.6799c-1.92 0-3.76-.67-5.25-1.92l-20.960023-17.67c-.71-.6-1.0800002-1.52-.9700002-2.45.1100002-.91.6500002-1.69 1.4600032-2.1l.1-.05c4.06-2.01 9.06002-1.37 12.74002 1.62l11.03 8.52-1.22 1.58-11.05-8.54c-3.09002-2.52-7.25002-3.06-10.61002-1.4-.37.19-.44.45-.46.59-.03.26.07.52.27.68l20.97002 17.66c1.24 1.04 2.8 1.55 4.4 1.44 12.51-.9 22.49-.91 30.53-.04l-.22 1.99c-7.91-.86-17.78-.84-30.17.04-.2.01-.39.02-.59.02z"/><path d="m27.6795 53.72c-2.58 0-4.78-1.98-5-4.59-.11-1.34.3-2.64 1.16-3.66s2.08-1.65 3.41-1.77l10.3-.88c1.89-.16 3.88-.77 5.91-1.8 6.79-3.46 16.18.4 22.47 5.76l-1.3 1.52c-5.6-4.77-14.33-8.52-20.27-5.5-2.26 1.15-4.49 1.83-6.64 2.01l-10.3.88c-.8.07-1.53.45-2.05 1.06-.52.62-.77 1.4-.7 2.2.14 1.66 1.6 2.9 3.27 2.75l14.33-1.23.17 1.99-14.33 1.23c-.14.01-.29.02-.43.02z"/><path d="m69.6397 75.4898-10.58-4.66c-1.9-.83-2.92-2.89-2.44-4.9 1.85-7.66 5.02-14.88 9.44-21.46 1.16-1.73 3.39-2.37 5.31-1.53l10.55 4.64-12.28 27.9zm-.02-30.91c-.75 0-1.47.36-1.9 1.01-4.29 6.38-7.37 13.39-9.16 20.81-.25 1.06.29 2.15 1.3 2.6l8.75 3.85 10.67-24.23-8.72-3.84c-.3-.13-.62-.2-.94-.2z"/><path d="m26.87 37.9898c-.32 0-.64 0-.96-.02-10.46-.52-18.55001-9.46-18.03001-19.92.53-10.45998 9.49001-18.549978 19.93001-18.0299775 10.46.5199995 18.55 9.4599975 18.03 19.9199775-.51 10.14-8.92 18.05-18.96 18.05zm-.02-35.98998c-8.99 0-16.51 7.08-16.97001 16.14998-.47 9.36 6.77001 17.36 16.13001 17.82 9.38.47 17.36-6.77 17.82-16.13.47-9.36-6.77-17.35998-16.13-17.81998-.29-.01-.57-.02-.86-.02z"/><path d="m26.86 28.9997c-3.12 0-5.66-2.19-5.66-4.88h2c0 1.59 1.64 2.88 3.66 2.88s3.66-1.29 3.66-2.88c0-1.79-2-2.97-4.13-4.21-2.43-1.42-5.19-3.03-5.19-6.04 0-2.69 2.54-4.87995 5.66-4.87995s5.66 2.18995 5.66 4.87995h-2c0-1.59-1.64-2.88-3.66-2.88s-3.66 1.29-3.66 2.88c0 1.86 2.04 3.06 4.2 4.32 2.4 1.4 5.12 2.99 5.12 5.93 0 2.69-2.54 4.88-5.66 4.88z"/><path d="m27.86 28h-2v4.23h2z"/><path d="m27.86 5.75977h-2v4.23h2z"/></g></svg>