<svg width="43" height="43" viewBox="0 0 43 43" fill="none" xmlns="http://www.w3.org/2000/svg">
<g clip-path="url(#clip0_1_1017)">
<path d="M1.09046 9.51791L0.459961 10.936L21.0795 20.1035L21.71 18.6854L1.09046 9.51791Z" fill="white"/>
<path d="M21.4017 43L0 33.4864V9.52394L20.8223 0L42.224 9.51877V33.5899L21.3965 43.0052L21.4017 43ZM1.55197 32.4776L21.3965 41.298L40.6772 32.5863V10.5224L20.8327 1.702L1.55197 10.5172V32.4776Z" fill="white"/>
<path d="M41.1289 9.52465L21.0753 18.689L21.7204 20.1005L41.774 10.9362L41.1289 9.52465Z" fill="white"/>
<path d="M22.1721 19.3945H20.6201V42.043H22.1721V19.3945Z" fill="white"/>
<path d="M30.7846 4.71128L10.4786 13.7563L11.1101 15.174L31.4161 6.12897L30.7846 4.71128Z" fill="white"/>
</g>
<defs>
<clipPath id="clip0_1_1017">
<rect width="42.224" height="43" fill="white"/>
</clipPath>
</defs>
</svg>
