<svg width="137" height="100" viewBox="0 0 137 100" fill="none" xmlns="http://www.w3.org/2000/svg">
<g id="step 1" clip-path="url(#clip0_1_1041)">
<g id="_&#227;&#131;&#172;&#227;&#130;&#164;&#227;&#131;&#164;&#227;&#131;&#188;_1-2">
<path id="Vector" d="M49.8296 47.2102C51.5296 50.3102 51.2296 55.1902 48.9396 61.8702C46.5596 68.8602 42.6396 75.4302 37.1696 81.5802C31.9696 87.4002 25.9896 92.1602 19.2196 95.8702C10.0196 100.91 3.90959 100.66 0.879586 95.1402C-0.930414 91.8402 0.0195863 87.4202 3.69959 81.8602C6.89959 76.9902 10.3496 73.5402 14.0496 71.5102C15.2396 70.8602 16.0296 70.9002 16.4196 71.6202C16.6896 72.1102 16.2696 72.7802 15.1496 73.6102C11.9296 76.0902 9.07959 78.9702 6.59959 82.2402C3.08959 86.7902 2.02959 90.3302 3.39959 92.8502C5.07959 95.9202 9.48959 95.4902 16.6296 91.5902C22.4396 88.4102 28.0296 83.8402 33.4096 77.8802C38.8996 71.7902 42.8096 65.7102 45.1296 59.6602C47.3796 53.7602 48.0196 49.9102 47.0396 48.1202C46.0696 46.3502 42.5596 46.7002 36.4996 49.1502C26.4696 53.2102 20.8096 55.4202 19.5396 55.7802C13.0796 57.5102 8.87959 56.6102 6.94959 53.0802C4.48959 48.5902 5.48959 42.4902 9.95959 34.7802C13.5996 28.4602 19.0196 21.8402 26.2196 14.9302C32.5296 8.88019 37.9196 4.63019 42.3696 2.19019C48.0696 -0.929813 51.8796 -0.729813 53.8196 2.80019C55.4796 5.84019 54.7896 10.8602 51.7496 17.8702C48.7996 24.6402 45.6996 28.9102 42.4596 30.6802C39.8596 32.1102 38.0596 31.9202 37.0796 30.1302C36.2596 28.6302 36.7796 26.0502 38.6496 22.3902C40.4396 18.9302 42.1296 16.7602 43.7196 15.8902C44.2696 15.5902 44.6396 15.6102 44.8296 15.9602L41.6896 20.8402C39.5996 24.0902 38.6996 26.1302 38.9996 26.9402C39.2596 27.0602 39.5596 27.0302 39.9096 26.8402C41.9996 25.7002 44.6696 22.4302 47.9396 17.0302C51.3996 11.3002 52.6096 7.48019 51.5596 5.57019C50.6396 3.89019 48.1596 4.16019 44.0996 6.38019C39.4696 8.92019 33.6696 13.8302 26.6996 21.1002C22.0096 26.0002 18.0796 30.6402 14.8996 35.0202C9.38959 42.5602 7.40959 47.7302 8.94959 50.5402C9.92959 52.3402 13.0096 52.3902 18.1696 50.6902L33.0796 44.8602C38.9596 42.6902 42.9196 42.0702 44.9696 42.9802C47.2396 44.0302 48.8596 45.4402 49.8196 47.2102H49.8296Z" fill="#ED1C24"/>
<path id="Vector_2" d="M68.8696 29.7704L53.5796 38.9304C52.7096 39.4104 52.1496 39.4104 51.8996 38.9504C51.6896 38.5704 52.2496 37.9004 53.5496 36.9204C55.3696 35.5104 58.0296 33.7004 61.5096 31.4904C65.3996 29.0604 68.1096 27.2904 69.6196 26.2104L71.7596 15.3904C72.9296 9.63041 73.8696 6.56041 74.5596 6.18041C75.4296 5.70041 76.1596 6.02041 76.7696 7.12041C77.4196 8.31041 76.9196 13.6404 75.2696 23.1204C78.1996 21.2504 80.6596 19.7704 82.6496 18.6804C83.9796 17.9504 84.7896 17.8504 85.0696 18.3704C85.3896 18.9504 83.9996 20.2204 80.8996 22.1804L74.4196 26.0104L71.3596 43.4004C69.6096 54.6904 69.1496 61.0904 69.9796 62.6204C70.3796 63.3404 71.0696 63.4404 72.0596 62.9204C73.0496 62.4004 73.6796 62.3704 73.9396 62.8504C74.2496 63.4204 73.7696 64.0504 72.4896 64.7404C69.9196 66.1504 68.0596 65.8104 66.9196 63.7304C66.0196 62.0804 65.5696 59.2604 65.5596 55.2804L65.8696 46.8804L58.5596 64.0204C55.5196 71.1704 52.5596 75.5404 49.6596 77.1304C49.3096 77.3204 49.0296 77.2204 48.8196 76.8304C48.5396 76.3304 48.6496 75.8404 49.1496 75.3704C50.0196 74.6304 51.2396 73.3104 52.7896 71.4104C54.1696 69.3404 56.7796 63.8604 60.5996 54.9704C63.4396 48.4204 65.1796 44.2204 65.8196 42.3704C66.9696 39.0404 67.9796 34.8404 68.8596 29.7804L68.8696 29.7704Z" fill="#ED1C24"/>
<path id="Vector_3" d="M86.0098 48.0803C84.7498 49.2203 82.7598 52.0403 80.0398 56.5403C77.6198 60.5003 75.4998 62.9803 73.6798 63.9703C73.3298 64.1603 73.0498 64.0603 72.8398 63.6703C72.5498 63.1303 72.7398 62.6003 73.4298 62.0703C75.0398 60.8203 76.9299 58.3803 79.1199 54.7503C81.5499 50.8003 83.7298 47.9603 85.6798 46.2303C85.2498 42.2903 86.1598 37.4203 88.3898 31.6103C90.7398 25.4003 93.4798 21.4303 96.5998 19.7203C98.9098 18.4503 100.61 18.8003 101.69 20.7703C103.1 23.3503 102.19 27.4903 98.9698 33.2003C96.6198 37.4203 93.9098 41.2003 90.8498 44.5303C90.9498 45.6703 91.2698 46.7403 91.8198 47.7503C92.6398 49.2503 93.6998 49.9303 94.9998 49.8203C95.6298 49.7303 96.6998 49.3203 98.1798 48.5803C99.2398 48.0403 99.9098 48.0003 100.17 48.4703C100.58 49.2103 98.9898 50.5603 95.4198 52.5103C91.6398 54.5803 88.8598 53.9803 87.0698 50.7103C86.6598 49.9603 86.3098 49.0803 86.0198 48.0703L86.0098 48.0803ZM90.4099 42.5103C92.3599 39.7503 94.1998 36.4503 95.9298 32.6103C98.2598 27.5303 98.9598 24.1403 98.0298 22.4403C97.6498 21.7503 97.1398 21.5703 96.4998 21.9203C94.6198 22.9503 93.0098 26.0903 91.6698 31.3303C90.4998 36.0703 90.0798 39.8003 90.3998 42.5103H90.4099Z" fill="#ED1C24"/>
<path id="Vector_4" d="M118.31 13.0301C116.35 18.5101 114.04 24.3501 111.38 30.5601L106.87 40.7701C104.49 45.4201 102.16 48.3801 99.8796 49.6301C99.5296 49.8201 99.2496 49.7201 99.0396 49.3301C98.7596 48.8301 98.9496 48.3001 99.5896 47.7501C100.48 47.0401 101.5 45.9201 102.65 44.3801C104.04 42.6001 106.39 37.8201 109.69 30.0401L115.53 15.1601C118.95 6.63012 120.89 2.24012 121.35 1.99012C122.42 1.40012 123.28 1.70012 123.93 2.89012C124.18 3.35012 123.92 6.30012 123.14 11.7401C124.98 7.00012 126.97 4.05012 129.11 2.87012C131.37 1.63012 133.16 2.23012 134.49 4.66012C136.22 7.81012 136.4 12.3401 135.04 18.2301C133.89 23.3401 132.13 27.6401 129.77 31.1601C130.17 31.0601 131.91 30.1601 135 28.4701C135.38 28.2601 135.7 28.4001 135.96 28.8701C136.3 29.4901 135.34 30.4301 133.07 31.6701C131.21 32.6901 129.49 33.2701 127.91 33.4301C127.36 34.0701 126.72 34.5901 126 34.9801C123.11 36.5601 120.65 35.2701 118.63 31.1001L109.73 69.9501C109.53 70.8901 109.2 71.4801 108.73 71.7401C107.86 72.2101 107.04 71.7401 106.26 70.3201C105.5 68.9301 106.24 63.2401 108.47 53.2501L112.1 38.4501L118.31 13.0301ZM124.4 32.0801L122.05 29.6401C120.77 28.3401 120.03 27.7501 119.83 27.8601C119.25 28.1801 119.5 29.3201 120.58 31.2901C121.47 32.9101 122.49 33.4101 123.65 32.7801C123.97 32.6101 124.22 32.3701 124.4 32.0901V32.0801ZM125.8 30.5201C128.1 26.7701 129.63 22.2001 130.4 16.8001C131.17 11.4001 131.22 8.08012 130.54 6.83012C130.09 6.02012 129.43 5.86012 128.53 6.35012C126.83 7.28012 125.03 10.3801 123.12 15.6401C121.73 19.4201 120.63 23.1101 119.82 26.7201C120.66 26.2601 121.69 26.6601 122.9 27.9201C124.48 29.5001 125.45 30.3701 125.79 30.5201H125.8Z" fill="#ED1C24"/>
</g>
</g>
<defs>
<clipPath id="clip0_1_1041">
<rect width="136.02" height="99.48" fill="white"/>
</clipPath>
</defs>
</svg>
