<svg fill="none" height="69" viewBox="0 0 91 69" width="91" xmlns="http://www.w3.org/2000/svg" xmlns:xlink="http://www.w3.org/1999/xlink"><clipPath id="a"><path d="m0 0h90.93v68.92h-90.93z"/></clipPath><g clip-path="url(#a)" fill="#fff"><path d="m82.31 68.9201h-16.17c-4.76 0-8.63-3.87-8.63-8.63v-37.35c0-4.76 3.87-8.63 8.63-8.63h16.17c4.76 0 8.63 3.87 8.63 8.63v37.35c0 4.76-3.87 8.63-8.63 8.63zm-16.17-51.6c-3.1 0-5.63 2.52-5.63 5.63v37.35c0 3.1 2.52 5.63 5.63 5.63h16.17c3.1 0 5.63-2.52 5.63-5.63v-37.36c0-3.1-2.52-5.63-5.63-5.63h-16.17z"/><path d="m89.43 21.75h-30.42v3h30.42z"/><path d="m89.43 57.52h-30.42v3h30.42z"/><path d="m52.96 56.41h-47.34c-3.1 0-5.62-2.52-5.62-5.62v-45.17c0-3.1 2.52-5.62 5.62-5.62h61.37c3.1 0 5.62 2.52 5.62 5.62v4.14h-3v-4.14c0-1.44-1.17-2.62-2.62-2.62h-61.37c-1.44 0-2.62 1.17-2.62 2.62v45.17c0 1.44 1.17 2.62 2.62 2.62h47.34z"/><path d="m49.77 68.79h-26.93c-.73 0-1.39-.43-1.69-1.1s-.17-1.45.31-1.99l3.86-4.28c1.17-1.3 1.82-2.98 1.82-4.73v-1.19h3v1.19c0 2.5-.92 4.89-2.59 6.74l-2.13 2.36h21.74l-2.13-2.36c-1.67-1.85-2.59-4.25-2.59-6.74v-1.19h3v1.19c0 1.75.65 3.43 1.82 4.73l3.86 4.28c.49.54.61 1.32.32 1.99-.3.67-.96 1.1-1.69 1.1z"/><path d="m52.96 43.9502h-51.46v3h51.46z"/></g></svg>