<svg width="174" height="69" viewBox="0 0 174 69" fill="none" xmlns="http://www.w3.org/2000/svg">
<g clip-path="url(#clip0_1_1161)">
<path d="M18.31 27.7897C18.66 27.7897 18.83 27.9597 18.83 28.3097C18.83 29.5997 16.75 31.7897 12.6 34.8897C8.45 37.9897 5.48 39.5397 3.68 39.5397C1.23 39.5397 0 38.3797 0 36.0497C0 32.7197 3.05 28.0897 9.15 22.1797C14.69 16.8297 21.04 11.9597 28.21 7.54973C35.57 3.01973 40.98 0.749727 44.44 0.749727C46.8 0.749727 47.98 1.89973 47.98 4.18973C47.98 5.66973 47.21 7.53973 45.67 9.79973C44.54 11.4397 41.42 15.0497 36.33 20.6497C17.99 40.7897 8.82 54.6797 8.82 62.3197C8.82 65.0897 10.03 66.4697 12.45 66.4697C17.26 66.4697 25.48 61.3497 37.1 51.1097C48.72 40.8697 58.01 31.0397 64.96 21.6197C71.91 12.1997 75.39 6.18973 75.39 3.56973C75.39 2.68973 74.92 2.24973 73.97 2.24973C71.58 2.24973 67.12 5.42973 60.59 11.7997C54.06 18.1697 50.85 22.4097 50.94 24.5097L50.99 25.6397C51.02 26.1097 50.86 26.3497 50.52 26.3497C50.18 26.3497 49.83 26.0797 49.48 25.5497C49.13 25.0097 48.96 24.5597 48.96 24.1797C48.96 22.6997 50.78 19.7297 54.43 15.2597C57.29 11.7697 60.39 8.61973 63.72 5.81973C68.31 1.91973 72.04 -0.0302734 74.9 -0.0302734C77.23 -0.0302734 78.39 1.12973 78.39 3.45973C78.39 8.07973 74.36 15.6997 66.31 26.2897C59.86 34.7797 51.72 43.3497 41.87 51.9997C29.19 63.0997 19.35 68.6497 12.34 68.6497C9.85 68.6497 7.92 67.6297 6.54 65.5797C5.31 63.7897 4.7 61.5997 4.7 59.0197C4.7 53.1697 8.16 45.7497 15.08 36.7497C19.26 31.2797 25.68 24.1997 34.33 15.5197C41.25 8.59973 44.71 4.72973 44.71 3.90973C44.71 3.30973 44.35 3.00973 43.63 3.00973C40.04 3.00973 32.38 7.70973 20.65 17.1197C8.84 26.6397 2.92 32.9497 2.92 36.0897C2.92 36.6297 3.2 36.8897 3.77 36.8897C5.4 36.8897 8.18 35.3697 12.1 32.3397C16.02 29.2997 18.08 27.7897 18.3 27.7897H18.31Z" fill="#ED1C24"/>
<path d="M63.22 54.4901L53.5 61.9001C48.53 65.3601 44.82 67.0901 42.37 67.0901C41.99 67.0901 41.8 66.9001 41.8 66.5101C41.8 65.8901 42.12 65.5201 42.74 65.3901C44.66 65.0401 46.29 64.5001 47.65 63.7401C50.01 62.4501 53.85 59.7101 59.16 55.5001L71.62 45.2801C74.01 43.1801 75.47 42.1301 76.01 42.1301C76.8 42.1301 77.68 42.5701 78.63 43.4501C80.45 42.0701 82.06 41.3701 83.47 41.3701C85.6 41.3701 86.67 42.5201 86.67 44.8101C86.67 48.2401 83.93 52.9101 78.46 58.8201C72.89 64.8001 68.39 67.7801 64.97 67.7801C61.76 67.7801 60.16 66.1001 60.16 62.7301C60.16 60.9701 61.18 58.2201 63.23 54.4701L63.22 54.4901ZM74.59 48.6901C68.17 54.3101 64.97 58.8801 64.97 62.4101C64.97 63.9201 65.69 64.6801 67.14 64.6801C69.5 64.6801 73.18 61.8201 78.18 56.1001C75.54 55.4701 74.22 53.7701 74.22 51.0001C74.22 50.2801 74.34 49.5001 74.6 48.6801L74.59 48.6901ZM79.21 54.5901C80.37 53.4801 81.54 51.9801 82.7 50.0901C83.99 47.9101 84.63 46.1701 84.63 44.8801C84.63 43.6801 84.11 43.0801 83.07 43.0801C81.53 43.0801 79.98 44.0501 78.42 45.9901C76.86 47.9301 76.09 49.6901 76.09 51.2701C76.09 53.0401 77.13 54.1501 79.2 54.5901H79.21Z" fill="#ED1C24"/>
<path d="M98.56 64.2097C98.56 65.0597 99.48 65.4797 101.33 65.4797C101.75 65.4797 101.95 65.7397 101.95 66.2597C101.95 66.8797 100.91 67.1797 98.81 67.1797C96.43 67.1797 95.25 66.0497 95.25 63.7797C95.25 61.1397 98.76 55.6197 105.77 47.2197L92.89 57.7397C85.28 63.9697 79.76 67.0797 76.33 67.0797C75.95 67.0797 75.76 66.8697 75.76 66.4497C75.76 65.8697 76.08 65.5097 76.7 65.3797C78.68 64.9997 80.49 64.3597 82.12 63.4497C84.16 62.3197 88.5 59.1297 95.14 53.8897L109.58 41.7897C110.21 41.5697 111.06 41.4597 112.13 41.4597C113.2 41.4597 113.73 42.0697 113.73 43.2997C113.73 44.6197 111.2 48.1697 106.13 53.9697C101.07 59.7597 98.53 63.1797 98.53 64.2097H98.56ZM119.41 31.5597C117.9 31.5597 117.15 30.7897 117.15 29.2497C117.15 27.9597 117.92 26.7997 119.46 25.7597C120.84 24.8197 122.23 24.3397 123.61 24.3397C125.24 24.3397 126.06 25.2397 126.06 27.0297C126.06 28.3197 125.24 29.4197 123.61 30.3297C122.19 31.1497 120.79 31.5597 119.41 31.5597Z" fill="#ED1C24"/>
<path d="M122.71 53.9297L112.85 61.6697C107.75 65.2897 103.87 67.0997 101.2 67.0997C100.82 67.0997 100.63 66.9097 100.63 66.5197C100.63 65.9397 101.01 65.5697 101.76 65.3997C104.68 64.8397 108.65 62.6497 113.65 58.8497L126.77 48.3997C133.94 42.5297 139.46 39.5897 143.33 39.5897C145.37 39.5897 146.4 40.3797 146.4 41.9497C147.09 41.9497 147.44 42.2597 147.44 42.8897C147.44 43.4297 147.05 43.7097 146.26 43.7397C145.63 45.9697 144.45 48.1897 142.72 50.3897C140.64 53.0297 138.65 54.3497 136.73 54.3497C135.6 54.3497 135.03 53.8297 135.03 52.7897C135.03 51.3097 136.26 49.3897 138.71 47.0297C140.88 44.9197 142.83 43.5097 144.56 42.7797L144.65 42.2597C144.65 41.8197 144.43 41.5997 143.99 41.5997C141.94 41.5997 138.18 44.4097 132.71 50.0297C127.24 55.6497 124.5 59.5697 124.5 61.7997C124.5 63.2097 125.11 64.1997 126.32 64.7697C126.93 65.0497 128.06 65.2697 129.72 65.4297C130.93 65.5597 131.54 65.8297 131.54 66.2497C131.54 66.8997 130.43 67.2197 128.22 67.2197C123.29 67.2197 120.83 64.9897 120.83 60.5197C120.83 58.8197 121.46 56.6197 122.72 53.9097L122.71 53.9297ZM143.75 44.9197C142.84 45.3297 141.55 46.3597 139.88 48.0097C138.09 49.7597 137.19 50.9797 137.19 51.6697L137.57 52.0497C138.42 52.0497 139.6 51.0797 141.11 49.1397C142.4 47.4797 143.28 46.0797 143.75 44.9197Z" fill="#ED1C24"/>
<path d="M148.38 59.4493C146.81 59.8293 143.85 61.2793 139.51 63.7893C135.67 65.9893 132.76 67.0893 130.78 67.0893C130.4 67.0893 130.21 66.8793 130.21 66.4593C130.21 65.8793 130.62 65.5193 131.44 65.3893C133.36 65.0793 136.06 63.8993 139.56 61.8693C143.4 59.6793 146.53 58.3093 148.95 57.7393C150.4 54.2493 153.38 50.5793 157.91 46.7493C162.72 42.6293 166.83 40.5693 170.22 40.5693C172.74 40.5693 173.99 41.6393 173.99 43.7793C173.99 46.5793 171.33 49.6293 166.02 52.9293C162.12 55.3793 158.12 57.2993 154.04 58.6893C153.6 59.6893 153.38 60.7393 153.38 61.8293C153.38 63.4493 153.95 64.5193 155.09 65.0193C155.66 65.2393 156.74 65.3793 158.32 65.4393C159.46 65.4693 160.03 65.7493 160.03 66.2593C160.03 67.0593 158.09 67.4693 154.2 67.4693C150.09 67.4693 148.04 65.6893 148.04 62.1393C148.04 61.3193 148.15 60.4293 148.37 59.4493H148.38ZM154.61 56.8093C157.5 55.3893 160.55 53.4793 163.76 51.0493C168.04 47.8693 170.18 45.3593 170.18 43.4993C170.18 42.7493 169.83 42.3693 169.14 42.3693C167.1 42.3693 164.31 44.2593 160.79 48.0293C157.64 51.4593 155.58 54.3793 154.61 56.8093Z" fill="#ED1C24"/>
</g>
<defs>
<clipPath id="clip0_1_1161">
<rect width="174" height="68.69" fill="white"/>
</clipPath>
</defs>
</svg>
